<svg xmlns="http://www.w3.org/2000/svg" xmlns:xlink="http://www.w3.org/1999/xlink" id="Layer_1" x="0px" y="0px" viewBox="0 0 561 241" style="enable-background:new 0 0 561 241;" xml:space="preserve"><style type="text/css">	.st0{fill:#FFFFFF;}	.st1{fill:#009687;}</style><g>	<g>		<path class="st0" d="M533,20.4c-16.3-11.9-36.8-18.6-61.3-20l-35.6,50.1c4.6-0.7,9.4-1,14.2-1c15.2,0,27.4,3.5,36.6,10.4   c9.2,7,13.8,16.3,13.8,28v30.9c-15.9-18.7-40.1-28-72.7-28c-7.8,0-15.2,0.8-22.3,2.5c-12.2,2.9-23.4,8.2-33.5,16   c-7.9,6.1-13.8,13.6-17.7,22.6c-4.2,9.4-6.3,20.4-6.3,33c0,23.8,8.2,42.4,24.5,55.8c16.3,13.5,34.8,20.2,55.4,20.2   c32,0,56.2-9.8,72.7-29.5v23.8H561V87C561,56.2,551.7,34.1,533,20.4z M500.3,165.9c0,12.7-7.4,24.4-19.1,29.2   c-8.1,3.3-17.7,5-29,5c-12.3,0-22.6-3-30.9-9c-8.2-6-12.3-14.3-12.3-24.7c0-10.8,4.1-19.3,12.3-25.4c8.3-6.2,18.5-9.3,30.9-9.3   c11.3,0,20.9,1.7,29,5C492.9,141.5,500.3,153.2,500.3,165.9L500.3,165.9z"></path>		<g id="XMLID_00000065063958456701072050000018209238467095993517_">			<path class="st0" d="M310,150.2L217.1,0l-40.4,65.4l0,0L149,110.2L95,22.9C86.2,8.7,70.7,0,53.9,0H0l108.6,175.6l0,0L149,241    l68.1-110.2L285.2,241l24.7-40C319.6,185.4,319.6,165.7,310,150.2z"></path>			<path id="XMLID_00000116956771611154273570000016357248653226985345_" class="st1" d="M281.8,104.2l53.8,3.5    c16.7,1.1,32.8-6.6,42.5-20.2h0l59.5-83.6l-53.8-3.5c-16.7-1.1-32.8,6.6-42.5,20.2L281.8,104.2z"></path>		</g>	</g></g></svg>