<svg xmlns="http://www.w3.org/2000/svg" id="Layer_1" viewBox="0 0 216.9 93.15"><path d="M206.05,7.9c-6.31-4.59-14.22-7.18-23.71-7.74l-13.75,19.36c1.79-.27,3.63-.4,5.5-.4,5.88,0,10.58,1.35,14.14,4.04,3.55,2.7,5.33,6.31,5.33,10.84v11.94c-6.13-7.23-15.5-10.83-28.12-10.83-3.01,0-5.89.32-8.63.97-4.72,1.11-9.04,3.17-12.96,6.19-3.04,2.34-5.32,5.26-6.86,8.75-1.61,3.63-2.42,7.87-2.42,12.75,0,9.19,3.16,16.39,9.46,21.59,6.31,5.21,13.45,7.81,21.41,7.81,12.37,0,21.74-3.8,28.12-11.39v9.19h23.33v-57.33c0-11.88-3.62-20.45-10.84-25.72ZM193.43,64.12c0,4.9-2.87,9.42-7.39,11.29-3.12,1.29-6.86,1.94-11.22,1.94-4.77,0-8.75-1.17-11.94-3.5-3.19-2.32-4.77-5.51-4.77-9.55s1.58-7.45,4.77-9.84c3.19-2.38,7.17-3.58,11.94-3.58,4.36,0,8.09.65,11.22,1.94,4.53,1.87,7.39,6.39,7.39,11.29h0Z" fill="#fff" stroke-width="0"></path><path d="M119.83,58.06L83.93,0l-15.63,25.28h0l-10.71,17.32L36.73,8.85C33.33,3.35,27.32,0,20.85,0H0l41.97,67.88h0l15.63,25.28,26.34-42.6,26.34,42.6,9.56-15.46c3.72-6.02,3.72-13.62,0-19.64Z" fill="#fff" stroke-width="0"></path><path d="M108.96,40.3l20.81,1.34c6.46.41,12.67-2.54,16.42-7.82h0S169.17,1.48,169.17,1.48l-20.81-1.34c-6.46-.41-12.67,2.54-16.42,7.82l-22.98,32.34Z" fill="#009687" stroke-width="0"></path></svg>