<svg xmlns="http://www.w3.org/2000/svg" id="Layer_1" viewBox="0 0 911.13 113.47"><path d="M206.05,7.9c-6.31-4.59-14.22-7.18-23.71-7.74l-13.75,19.36c1.79-.27,3.63-.4,5.5-.4,5.88,0,10.58,1.35,14.14,4.04,3.55,2.7,5.33,6.31,5.33,10.84v11.94c-6.13-7.23-15.5-10.83-28.12-10.83-3.01,0-5.89.32-8.63.97-4.72,1.11-9.04,3.17-12.96,6.19-3.04,2.34-5.32,5.26-6.86,8.75-1.61,3.63-2.42,7.87-2.42,12.75,0,9.19,3.16,16.39,9.46,21.59,6.31,5.21,13.45,7.81,21.41,7.81,12.37,0,21.74-3.8,28.12-11.39v9.19h23.33v-57.33c0-11.88-3.62-20.45-10.84-25.72ZM193.43,64.12c0,4.9-2.87,9.42-7.39,11.29-3.12,1.29-6.86,1.94-11.22,1.94-4.77,0-8.75-1.17-11.94-3.5-3.19-2.32-4.77-5.51-4.77-9.55s1.58-7.45,4.77-9.84c3.19-2.38,7.17-3.58,11.94-3.58,4.36,0,8.09.65,11.22,1.94,4.53,1.87,7.39,6.39,7.39,11.29h0Z" fill="#fff" stroke-width="0"></path><path d="M119.83,58.06L83.93,0l-15.63,25.28h0l-10.71,17.32L36.73,8.85C33.33,3.35,27.32,0,20.85,0H0l41.97,67.88h0l15.63,25.28,26.34-42.6,26.34,42.6,9.56-15.46c3.72-6.02,3.72-13.62,0-19.64Z" fill="#fff" stroke-width="0"></path><path d="M108.96,40.3l20.81,1.34c6.46.41,12.67-2.54,16.42-7.82h0S169.17,1.48,169.17,1.48l-20.81-1.34c-6.46-.41-12.67,2.54-16.42,7.82l-22.98,32.34Z" fill="#009687" stroke-width="0"></path><path d="M267.48,85.62h.22l15.66-52.56h5.7l15.77,52.56h.22l16.1-52.56h4.7l-18.45,57.48h-5.26l-15.77-52.11h-.22l-15.88,52.11h-5.37l-18.23-57.48h4.59l16.21,52.56Z" fill="#fff" stroke-width="0"></path><path d="M327.01,33.07h5.03l21.36,52.45,19.68-52.45h4.81l-24.6,63.63c-1.19,2.83-2.29,5.27-3.3,7.32s-2.14,3.56-3.41,4.53c-1.49,1.19-3.26,1.92-5.31,2.18-2.05.26-4.75.39-8.11.39v-3.69c3.06,0,5.44-.24,7.16-.73,1.71-.49,3.32-1.47,4.81-2.96.82-.82,1.68-2.33,2.57-4.53.89-2.2,2.01-5.2,3.35-9l-24.04-57.14Z" fill="#fff" stroke-width="0"></path><path d="M382.09,33.07h4.25v12.3h.22c.74-2.16,1.81-4.08,3.19-5.76,1.38-1.68,2.98-3.11,4.81-4.31,1.83-1.19,3.82-2.09,5.98-2.68,2.16-.6,4.36-.89,6.6-.89,3.35,0,6.21.41,8.55,1.23,2.35.82,4.27,1.9,5.76,3.24,1.49,1.34,2.66,2.85,3.52,4.53.86,1.68,1.47,3.37,1.84,5.09.37,1.71.6,3.37.67,4.98.07,1.6.11,3,.11,4.19v35.56h-4.25v-36.34c0-1.42-.11-3.2-.34-5.37-.22-2.16-.88-4.23-1.96-6.21-1.08-1.97-2.72-3.67-4.92-5.09-2.2-1.41-5.24-2.12-9.11-2.12-3.28,0-6.19.6-8.72,1.79-2.53,1.19-4.7,2.85-6.49,4.98-1.79,2.12-3.15,4.66-4.08,7.6-.93,2.95-1.4,6.17-1.4,9.67v31.09h-4.25v-57.48Z" fill="#fff" stroke-width="0"></path><path d="M437.74,33.07h4.25v12.3h.22c.74-2.16,1.81-4.08,3.19-5.76,1.38-1.68,2.98-3.11,4.81-4.31,1.83-1.19,3.82-2.09,5.98-2.68,2.16-.6,4.36-.89,6.6-.89,3.35,0,6.21.41,8.55,1.23,2.35.82,4.27,1.9,5.76,3.24,1.49,1.34,2.66,2.85,3.52,4.53.86,1.68,1.47,3.37,1.84,5.09.37,1.71.6,3.37.67,4.98.07,1.6.11,3,.11,4.19v35.56h-4.25v-36.34c0-1.42-.11-3.2-.34-5.37-.22-2.16-.88-4.23-1.96-6.21-1.08-1.97-2.72-3.67-4.92-5.09-2.2-1.41-5.24-2.12-9.11-2.12-3.28,0-6.19.6-8.72,1.79-2.53,1.19-4.7,2.85-6.49,4.98-1.79,2.12-3.15,4.66-4.08,7.6-.93,2.95-1.4,6.17-1.4,9.67v31.09h-4.25v-57.48Z" fill="#fff" stroke-width="0"></path><path d="M542.06,77.68c0,1.57.21,2.68.62,3.35.41.67,1.21,1.01,2.4,1.01h1.34c.52,0,1.12-.07,1.79-.22v8.83c-.45.15-1.03.32-1.73.5-.71.18-1.44.35-2.18.5-.75.15-1.49.26-2.24.34-.75.07-1.38.11-1.9.11-2.61,0-4.77-.52-6.49-1.57-1.72-1.04-2.83-2.87-3.35-5.48-2.54,2.46-5.65,4.25-9.34,5.37-3.69,1.12-7.25,1.68-10.68,1.68-2.61,0-5.11-.36-7.49-1.06-2.39-.71-4.49-1.75-6.32-3.13-1.83-1.38-3.28-3.13-4.36-5.26-1.08-2.13-1.62-4.6-1.62-7.44,0-3.58.65-6.49,1.96-8.72,1.3-2.24,3.02-3.99,5.14-5.26,2.13-1.27,4.51-2.18,7.16-2.74,2.65-.56,5.31-.99,8-1.29,2.31-.45,4.51-.76,6.6-.95s3.93-.5,5.54-.95c1.6-.45,2.87-1.14,3.8-2.07s1.4-2.33,1.4-4.19c0-1.64-.39-2.98-1.17-4.03-.78-1.04-1.75-1.85-2.91-2.4-1.16-.56-2.44-.93-3.86-1.12-1.42-.18-2.76-.28-4.03-.28-3.58,0-6.52.75-8.83,2.24-2.31,1.49-3.62,3.8-3.91,6.93h-12.75c.22-3.73,1.12-6.82,2.68-9.28,1.57-2.46,3.56-4.44,5.98-5.93,2.42-1.49,5.16-2.53,8.22-3.13,3.06-.6,6.19-.89,9.39-.89,2.83,0,5.63.3,8.39.89,2.76.6,5.24,1.57,7.44,2.91,2.2,1.34,3.97,3.07,5.31,5.2,1.34,2.12,2.01,4.72,2.01,7.77v29.74ZM529.31,61.58c-1.94,1.27-4.32,2.03-7.16,2.29-2.83.26-5.67.65-8.5,1.17-1.34.22-2.65.54-3.91.95-1.27.41-2.39.97-3.35,1.68-.97.71-1.73,1.64-2.29,2.8-.56,1.16-.84,2.55-.84,4.19,0,1.42.41,2.61,1.23,3.58.82.97,1.81,1.73,2.96,2.29s2.42.95,3.8,1.17c1.38.22,2.63.34,3.75.34,1.42,0,2.94-.18,4.59-.56,1.64-.37,3.19-1.01,4.64-1.9s2.66-2.03,3.63-3.41c.97-1.38,1.45-3.07,1.45-5.09v-9.51Z" fill="#009687" stroke-width="0"></path><path d="M607.71,90.54h-12.08v-7.83h-.22c-1.71,3.35-4.21,5.76-7.49,7.21-3.28,1.45-6.75,2.18-10.4,2.18-4.55,0-8.52-.8-11.91-2.4-3.39-1.6-6.21-3.78-8.44-6.54-2.24-2.76-3.91-6.02-5.03-9.79-1.12-3.76-1.68-7.81-1.68-12.13,0-5.22.71-9.73,2.12-13.53,1.42-3.8,3.3-6.93,5.65-9.39s5.03-4.27,8.05-5.42c3.02-1.15,6.09-1.73,9.23-1.73,1.79,0,3.61.17,5.48.5,1.86.34,3.65.88,5.37,1.62,1.71.75,3.3,1.7,4.75,2.85,1.45,1.16,2.66,2.52,3.63,4.08h.22V10.7h12.75v79.84ZM563.2,62.25c0,2.46.32,4.88.95,7.27.63,2.39,1.6,4.51,2.91,6.37,1.3,1.86,2.96,3.35,4.98,4.47,2.01,1.12,4.4,1.68,7.16,1.68s5.27-.6,7.32-1.79c2.05-1.19,3.73-2.76,5.03-4.7,1.3-1.94,2.27-4.12,2.91-6.54.63-2.42.95-4.9.95-7.44,0-6.41-1.44-11.4-4.3-14.98-2.87-3.58-6.77-5.37-11.69-5.37-2.98,0-5.5.61-7.55,1.84-2.05,1.23-3.73,2.83-5.03,4.81-1.3,1.98-2.24,4.21-2.8,6.71-.56,2.5-.84,5.05-.84,7.66Z" fill="#009687" stroke-width="0"></path><path d="M613.32,32.73h13.87l14.65,44.39h.22l14.09-44.39h13.2l-20.69,57.81h-14.31l-21.02-57.81Z" fill="#009687" stroke-width="0"></path><path d="M674.9,10.7h12.75v12.08h-12.75v-12.08ZM674.9,32.73h12.75v57.81h-12.75v-57.81Z" fill="#009687" stroke-width="0"></path><path d="M708.64,71.98c.37,3.73,1.79,6.34,4.25,7.83,2.46,1.49,5.4,2.24,8.83,2.24,1.19,0,2.55-.09,4.08-.28,1.53-.19,2.96-.54,4.31-1.06,1.34-.52,2.44-1.29,3.3-2.29.86-1.01,1.25-2.33,1.17-3.97-.08-1.64-.67-2.98-1.79-4.03-1.12-1.04-2.55-1.88-4.31-2.52-1.75-.63-3.75-1.17-5.98-1.62-2.24-.45-4.51-.93-6.82-1.45-2.39-.52-4.68-1.16-6.88-1.9-2.2-.75-4.18-1.75-5.93-3.02-1.75-1.27-3.15-2.89-4.19-4.86-1.04-1.97-1.56-4.42-1.56-7.32,0-3.13.76-5.76,2.29-7.88,1.53-2.13,3.47-3.84,5.82-5.14,2.35-1.3,4.96-2.22,7.83-2.74,2.87-.52,5.61-.78,8.22-.78,2.98,0,5.83.32,8.55.95,2.72.63,5.18,1.66,7.38,3.07,2.2,1.42,4.03,3.26,5.48,5.54,1.45,2.27,2.37,5.01,2.74,8.22h-13.31c-.6-3.06-2-5.11-4.19-6.15-2.2-1.04-4.72-1.56-7.55-1.56-.89,0-1.96.08-3.19.22-1.23.15-2.39.43-3.47.84-1.08.41-2,1.01-2.74,1.79-.75.78-1.12,1.81-1.12,3.07,0,1.57.54,2.83,1.62,3.8,1.08.97,2.5,1.77,4.25,2.4,1.75.63,3.75,1.17,5.98,1.62,2.24.45,4.55.93,6.93,1.45,2.31.52,4.58,1.16,6.82,1.9,2.24.75,4.23,1.75,5.98,3.02,1.75,1.27,3.17,2.87,4.25,4.81,1.08,1.94,1.62,4.32,1.62,7.16,0,3.43-.78,6.34-2.35,8.72-1.56,2.39-3.6,4.32-6.09,5.82-2.5,1.49-5.27,2.57-8.33,3.24-3.06.67-6.08,1.01-9.06,1.01-3.65,0-7.03-.41-10.12-1.23-3.09-.82-5.78-2.07-8.05-3.75-2.28-1.68-4.06-3.76-5.37-6.26-1.3-2.5-2-5.46-2.07-8.89h12.75Z" fill="#009687" stroke-width="0"></path><path d="M781.27,92.11c-4.62,0-8.74-.77-12.36-2.29-3.62-1.53-6.67-3.64-9.17-6.32-2.5-2.68-4.4-5.89-5.7-9.62-1.3-3.73-1.96-7.83-1.96-12.3s.65-8.46,1.96-12.19c1.3-3.73,3.2-6.93,5.7-9.62,2.5-2.68,5.55-4.79,9.17-6.32,3.61-1.53,7.73-2.29,12.36-2.29s8.74.77,12.36,2.29c3.62,1.53,6.67,3.63,9.17,6.32,2.5,2.68,4.4,5.89,5.7,9.62,1.3,3.73,1.96,7.79,1.96,12.19s-.65,8.57-1.96,12.3c-1.31,3.73-3.21,6.93-5.7,9.62-2.5,2.68-5.55,4.79-9.17,6.32-3.62,1.53-7.73,2.29-12.36,2.29ZM781.27,82.05c2.83,0,5.29-.6,7.38-1.79,2.09-1.19,3.8-2.76,5.14-4.7,1.34-1.94,2.33-4.12,2.96-6.54.63-2.42.95-4.9.95-7.44s-.32-4.92-.95-7.38c-.63-2.46-1.62-4.64-2.96-6.54s-3.06-3.45-5.14-4.64c-2.09-1.19-4.55-1.79-7.38-1.79s-5.29.6-7.38,1.79c-2.09,1.19-3.8,2.74-5.14,4.64s-2.33,4.08-2.96,6.54-.95,4.92-.95,7.38.32,5.02.95,7.44c.63,2.42,1.62,4.6,2.96,6.54,1.34,1.94,3.06,3.51,5.14,4.7,2.09,1.19,4.55,1.79,7.38,1.79Z" fill="#009687" stroke-width="0"></path><path d="M818.52,32.73h11.96v11.18h.22c.37-1.57,1.1-3.09,2.18-4.58,1.08-1.49,2.39-2.85,3.91-4.08,1.53-1.23,3.22-2.22,5.09-2.96,1.86-.75,3.76-1.12,5.7-1.12,1.49,0,2.52.04,3.08.11.56.08,1.14.15,1.73.22v12.3c-.89-.15-1.81-.28-2.74-.39-.93-.11-1.84-.17-2.74-.17-2.16,0-4.19.43-6.1,1.29-1.9.86-3.56,2.12-4.98,3.8-1.42,1.68-2.54,3.75-3.35,6.21-.82,2.46-1.23,5.29-1.23,8.5v27.51h-12.75v-57.81Z" fill="#009687" stroke-width="0"></path><path d="M853.87,32.73h13.98l15.1,43.16h.22l14.65-43.16h13.31l-22.48,60.94c-1.04,2.61-2.07,5.11-3.08,7.49-1.01,2.39-2.24,4.49-3.69,6.32-1.45,1.83-3.26,3.28-5.42,4.36-2.16,1.08-4.92,1.62-8.27,1.62-2.98,0-5.93-.22-8.83-.67v-10.73c1.04.15,2.05.32,3.02.5.97.18,1.97.28,3.02.28,1.49,0,2.72-.19,3.69-.56.97-.37,1.77-.91,2.4-1.62.63-.71,1.17-1.55,1.62-2.52.45-.97.85-2.09,1.23-3.35l1.45-4.47-21.92-57.59Z" fill="#009687" stroke-width="0"></path></svg>